<svg id="Layer_1" data-name="Layer 1" xmlns="http://www.w3.org/2000/svg" xmlns:xlink="http://www.w3.org/1999/xlink" viewBox="0 0 288.38 297"><defs><style>.cls-1{fill:url(#linear-gradient);}.cls-2{fill:url(#linear-gradient-2);}.cls-3{fill:url(#linear-gradient-3);}.cls-4{fill:url(#linear-gradient-4);}.cls-5{fill:url(#linear-gradient-5);}.cls-6{fill:url(#linear-gradient-6);}.cls-7{fill:url(#linear-gradient-7);}.cls-8{fill:url(#linear-gradient-8);}.cls-9{fill:url(#linear-gradient-9);}.cls-10{fill:url(#linear-gradient-10);}.cls-11{fill:url(#linear-gradient-11);}.cls-12{fill:#231f20;}</style><linearGradient id="linear-gradient" x1="143.75" y1="206.02" x2="317.77" y2="206.02" gradientUnits="userSpaceOnUse"><stop offset="0" stop-color="#3f60ac"/><stop offset="1" stop-color="#47c7f0"/></linearGradient><linearGradient id="linear-gradient-2" x1="278.68" y1="146.69" x2="356.69" y2="146.69" xlink:href="#linear-gradient"/><linearGradient id="linear-gradient-3" x1="298.89" y1="226.1" x2="351.33" y2="226.1" xlink:href="#linear-gradient"/><linearGradient id="linear-gradient-4" x1="106.89" y1="129.46" x2="198.58" y2="129.46" xlink:href="#linear-gradient"/><linearGradient id="linear-gradient-5" x1="124.3" y1="148.45" x2="189.04" y2="148.45" xlink:href="#linear-gradient"/><linearGradient id="linear-gradient-6" x1="252.54" y1="340.82" x2="284.46" y2="340.82" xlink:href="#linear-gradient"/><linearGradient id="linear-gradient-7" x1="207.13" y1="342.47" x2="241.06" y2="342.47" xlink:href="#linear-gradient"/><linearGradient id="linear-gradient-8" x1="228.89" y1="333.88" x2="285" y2="333.88" xlink:href="#linear-gradient"/><linearGradient id="linear-gradient-9" x1="140.21" y1="161.71" x2="171.15" y2="161.71" xlink:href="#linear-gradient"/><linearGradient id="linear-gradient-10" x1="200.51" y1="88.03" x2="301.19" y2="88.03" xlink:href="#linear-gradient"/><linearGradient id="linear-gradient-11" x1="319.78" y1="323.64" x2="168.76" y2="62.07" gradientUnits="userSpaceOnUse"><stop offset="0" stop-color="#4253a4"/><stop offset="0.19" stop-color="#4357a6"/><stop offset="0.37" stop-color="#4662ad"/><stop offset="0.55" stop-color="#4b75b9"/><stop offset="0.72" stop-color="#5190c9"/><stop offset="0.89" stop-color="#5ab2de"/><stop offset="1" stop-color="#60cbee"/></linearGradient></defs><path class="cls-1" d="M309.71,188.47a8,8,0,0,0-5.4,2.09L253,158.23a6.67,6.67,0,0,0,.12-1.19,6,6,0,0,0-2.25-4.68L263,115.91a8.07,8.07,0,1,0-4.22-1.12l-12,36.19a6.07,6.07,0,0,0-2.23,11.59l-1.19,19.23a7.09,7.09,0,0,0-.78.39l-19.83-17a6.25,6.25,0,0,0,.37-2,6.07,6.07,0,0,0-4.66-5.9l-6.07-43.4L163.49,95.51a6.14,6.14,0,1,0-1.55,4.07L208.4,117l5.71,40.8a6.07,6.07,0,1,0,5.77,10.67l19.43,16.68a9.43,9.43,0,0,0-1.62,5.3c0,.16,0,.31,0,.47l-26.53,9.47a6,6,0,0,0-8.61-.59l-19.24-10-28.19,3.83a6.06,6.06,0,1,0,.6,4.31l26.8-3.64,18,9.37a5.23,5.23,0,0,0-.07.68,6.07,6.07,0,0,0,3.91,5.67v6.22a12.23,12.23,0,0,1,4.35.46V210a6.08,6.08,0,0,0,3.9-5.53l26.26-9.37a9.48,9.48,0,0,0,5.27,4.32l-4.5,51.4c1.46.2,2.89.43,4.3.73l4.54-51.77a9.44,9.44,0,0,0,7.52-6.18l16.26,3.33a6.06,6.06,0,0,0,5.24,5.6L297,284.61l-7,19.13a10.9,10.9,0,0,0-1.14-.07,9.46,9.46,0,1,0,5.22,1.57l7.51-20.36L281.8,201.56a6.08,6.08,0,1,0-8.17-8.8l-17.1-3.5a9.44,9.44,0,0,0-8.79-8.24l1.12-18.2a6,6,0,0,0,1.81-.92L302,194.24a8,8,0,0,0-.34,2.3,8.07,8.07,0,1,0,8.07-8.07Z" transform="translate(-68.31 -61)"/><path class="cls-2" d="M347.23,158.3a9.4,9.4,0,0,0-9.31,11.07l-13.26,4.07-18.83-23.31-14.08-24.51A7,7,0,0,0,292.8,122a7.06,7.06,0,1,0-7.06,7.06,7,7,0,0,0,2.64-.53l13.76,23.95,21,26,16.51-5.09a9.46,9.46,0,1,0,7.59-15.09Z" transform="translate(-68.31 -61)"/><path class="cls-3" d="M341.87,182.58a9.46,9.46,0,0,0-8.37,13.87l-25.94,22.61a6.08,6.08,0,1,0-3.95,11.42l2.74,20.84a9.44,9.44,0,1,0,4.32-.58l-2.75-20.88a6.06,6.06,0,0,0,3.15-5.3,6,6,0,0,0-.48-2.36l25.78-22.47a9.46,9.46,0,1,0,5.5-17.15Z" transform="translate(-68.31 -61)"/><path class="cls-4" d="M124.3,179c-.34,0-.67,0-1,.05l-11.88-17.82,5.49-41.15L151,77.7l32.2-5.24a8,8,0,1,0-.71-4.3l-33.84,5.51-35.9,44.64-5.87,44,12.19,18.28A9.46,9.46,0,1,0,124.3,179Z" transform="translate(-68.31 -61)"/><path class="cls-5" d="M143.09,136.31,177.6,132a6.1,6.1,0,0,0,3.17,2.81V162a6.09,6.09,0,1,0,4.35.34V134.81a6.08,6.08,0,1,0-8.07-7.13L142.77,132a9.48,9.48,0,1,0,.32,4.35Z" transform="translate(-68.31 -61)"/><path class="cls-6" d="M278.37,323.63a6.09,6.09,0,0,0-6.09,6.09,6,6,0,0,0,.75,2.86l-12.24,13.66a6.17,6.17,0,1,0,3.23,2.91l12.3-13.72a6.08,6.08,0,1,0,2.05-11.8Z" transform="translate(-68.31 -61)"/><path class="cls-7" d="M235,345.82c-.11,0-.21,0-.31,0l-8.41-18.91c-1.63,0-3.18.11-4.62.22l9,20.43a6.1,6.1,0,1,0,4.3-1.77Z" transform="translate(-68.31 -61)"/><path class="cls-8" d="M259.42,324.24a45.27,45.27,0,0,1-5.73,1.34l-3.25,5.84a5.78,5.78,0,0,0-.74-.08,6.09,6.09,0,1,0,6.09,6.09,6,6,0,0,0-1.5-4Z" transform="translate(-68.31 -61)"/><path class="cls-9" d="M159,176.62a6.15,6.15,0,1,0,1.61-4.09l-13.29-4.05,11.43-16a6,6,0,0,0,2,.36,6.15,6.15,0,1,0-5.33-3.19l-15.18,21.19L159,176.59Z" transform="translate(-68.31 -61)"/><path class="cls-10" d="M206.6,83.22a6.07,6.07,0,0,0,4.06-1.58l27.5,16.67,9.6-9.84,34.53,7.31a9.46,9.46,0,1,0,.9-4.26l-36.88-7.81-8.85,9.08L212.62,77.74a4.07,4.07,0,0,0,.07-.61,6.09,6.09,0,1,0-6.09,6.09Z" transform="translate(-68.31 -61)"/><path class="cls-11" d="M309.71,188.47a8,8,0,0,0-5.4,2.09L253,158.23a6.67,6.67,0,0,0,.12-1.19,6,6,0,0,0-2.25-4.68L263,115.91a8.07,8.07,0,1,0-4.22-1.12l-12,36.19a6.07,6.07,0,0,0-2.23,11.59l-1.19,19.23a7.09,7.09,0,0,0-.78.39l-19.83-17a6.25,6.25,0,0,0,.37-2,6.07,6.07,0,0,0-4.66-5.9l-6.07-43.4L163.49,95.51a6.14,6.14,0,1,0-1.55,4.07L208.4,117l5.71,40.8a6.07,6.07,0,1,0,5.77,10.67l19.43,16.68a9.43,9.43,0,0,0-1.62,5.3c0,.16,0,.31,0,.47l-26.53,9.47a6,6,0,0,0-8.61-.59l-19.24-10-28.19,3.83a6.06,6.06,0,1,0,.6,4.31l26.8-3.64,18,9.37a5.23,5.23,0,0,0-.07.68,6.07,6.07,0,0,0,3.91,5.67v6.22a12.23,12.23,0,0,1,4.35.46V210a6.08,6.08,0,0,0,3.9-5.53l26.26-9.37a9.48,9.48,0,0,0,5.27,4.32l-4.5,51.4c1.46.2,2.89.43,4.3.73l4.54-51.77a9.44,9.44,0,0,0,7.52-6.18l16.26,3.33a6.06,6.06,0,0,0,5.24,5.6L297,284.61l-7,19.13a10.9,10.9,0,0,0-1.14-.07,9.46,9.46,0,1,0,5.22,1.57l7.51-20.36L281.8,201.56a6.08,6.08,0,1,0-8.17-8.8l-17.1-3.5a9.44,9.44,0,0,0-8.79-8.24l1.12-18.2a6,6,0,0,0,1.81-.92L302,194.24a8,8,0,0,0-.34,2.3,8.07,8.07,0,1,0,8.07-8.07Z" transform="translate(-68.31 -61)"/><path class="cls-11" d="M347.23,158.3a9.4,9.4,0,0,0-9.31,11.07l-13.26,4.07-18.83-23.31-14.08-24.51A7,7,0,0,0,292.8,122a7.06,7.06,0,1,0-7.06,7.06,7,7,0,0,0,2.64-.53l13.76,23.95,21,26,16.51-5.09a9.46,9.46,0,1,0,7.59-15.09Z" transform="translate(-68.31 -61)"/><path class="cls-11" d="M341.87,182.58a9.46,9.46,0,0,0-8.37,13.87l-25.94,22.61a6.08,6.08,0,1,0-3.95,11.42l2.74,20.84a9.44,9.44,0,1,0,4.32-.58l-2.75-20.88a6.06,6.06,0,0,0,3.15-5.3,6,6,0,0,0-.48-2.36l25.78-22.47a9.46,9.46,0,1,0,5.5-17.15Z" transform="translate(-68.31 -61)"/><path class="cls-11" d="M124.3,179c-.34,0-.67,0-1,.05l-11.88-17.82,5.49-41.15L151,77.7l32.2-5.24a8,8,0,1,0-.71-4.3l-33.84,5.51-35.9,44.64-5.87,44,12.19,18.28A9.46,9.46,0,1,0,124.3,179Z" transform="translate(-68.31 -61)"/><path class="cls-11" d="M143.09,136.31,177.6,132a6.1,6.1,0,0,0,3.17,2.81V162a6.09,6.09,0,1,0,4.35.34V134.81a6.08,6.08,0,1,0-8.07-7.13L142.77,132a9.48,9.48,0,1,0,.32,4.35Z" transform="translate(-68.31 -61)"/><path class="cls-11" d="M278.37,323.63a6.09,6.09,0,0,0-6.09,6.09,6,6,0,0,0,.75,2.86l-12.24,13.66a6.17,6.17,0,1,0,3.23,2.91l12.3-13.72a6.08,6.08,0,1,0,2.05-11.8Z" transform="translate(-68.31 -61)"/><path class="cls-11" d="M235,345.82c-.11,0-.21,0-.31,0l-8.41-18.91c-1.63,0-3.18.11-4.62.22l9,20.43a6.1,6.1,0,1,0,4.3-1.77Z" transform="translate(-68.31 -61)"/><path class="cls-11" d="M259.42,324.24a45.27,45.27,0,0,1-5.73,1.34l-3.25,5.84a5.78,5.78,0,0,0-.74-.08,6.09,6.09,0,1,0,6.09,6.09,6,6,0,0,0-1.5-4Z" transform="translate(-68.31 -61)"/><path class="cls-11" d="M159,176.62a6.15,6.15,0,1,0,1.61-4.09l-13.29-4.05,11.43-16a6,6,0,0,0,2,.36,6.15,6.15,0,1,0-5.33-3.19l-15.18,21.19L159,176.59Z" transform="translate(-68.31 -61)"/><path class="cls-11" d="M206.6,83.22a6.07,6.07,0,0,0,4.06-1.58l27.5,16.67,9.6-9.84,34.53,7.31a9.46,9.46,0,1,0,.9-4.26l-36.88-7.81-8.85,9.08L212.62,77.74a4.07,4.07,0,0,0,.07-.61,6.09,6.09,0,1,0-6.09,6.09Z" transform="translate(-68.31 -61)"/><path class="cls-12" d="M72.93,307.09H68.69v-2.5H80.24v2.5H76v10.75H72.93Z" transform="translate(-68.31 -61)"/><path class="cls-12" d="M95.94,315.38v2.46H85.68V304.59h10v2.46h-7v2.87h6.16v2.39H88.73v3.07Z" transform="translate(-68.31 -61)"/><path class="cls-12" d="M101.31,311.21c0-4,3.07-6.85,7.2-6.85a6.82,6.82,0,0,1,5.45,2.35l-2,1.81a4.27,4.27,0,0,0-3.33-1.55,4.24,4.24,0,0,0,0,8.48,4.2,4.2,0,0,0,3.33-1.57l2,1.82a6.82,6.82,0,0,1-5.47,2.37C104.38,318.07,101.31,315.21,101.31,311.21Z" transform="translate(-68.31 -61)"/><path class="cls-12" d="M132,304.59v13.25h-3.07V312.4h-6v5.44h-3.07V304.59h3.07v5.22h6v-5.22Z" transform="translate(-68.31 -61)"/><path class="cls-12" d="M151.07,304.59v13.25h-2.52l-6.6-8v8h-3V304.59h2.53l6.59,8v-8Z" transform="translate(-68.31 -61)"/><path class="cls-12" d="M157.18,311.21c0-3.94,3.07-6.85,7.25-6.85s7.25,2.89,7.25,6.85-3.08,6.86-7.25,6.86S157.18,315.15,157.18,311.21Zm11.4,0a4.15,4.15,0,1,0-4.15,4.24A4,4,0,0,0,168.58,311.21Z" transform="translate(-68.31 -61)"/><path class="cls-12" d="M177.79,304.59h3.07v10.75h6.64v2.5h-9.71Z" transform="translate(-68.31 -61)"/><path class="cls-12" d="M192,311.21c0-3.94,3.07-6.85,7.25-6.85s7.26,2.89,7.26,6.85-3.09,6.86-7.26,6.86S192,315.15,192,311.21Zm11.4,0a4.15,4.15,0,1,0-4.15,4.24A4,4,0,0,0,203.36,311.21Z" transform="translate(-68.31 -61)"/><path class="cls-12" d="M221.53,311h2.8v5.38a9.13,9.13,0,0,1-5.36,1.69c-4.16,0-7.23-2.86-7.23-6.86s3.07-6.85,7.29-6.85a7.06,7.06,0,0,1,5.55,2.29l-2,1.82a4.47,4.47,0,0,0-3.43-1.5,4.24,4.24,0,1,0,0,8.48,4.94,4.94,0,0,0,2.39-.56Z" transform="translate(-68.31 -61)"/><path class="cls-12" d="M231,304.59H234v13.25H231Z" transform="translate(-68.31 -61)"/><path class="cls-12" d="M251.23,315.38v2.46H241V304.59h10v2.46h-7v2.87h6.15v2.39H244v3.07Z" transform="translate(-68.31 -61)"/><path class="cls-12" d="M256.43,316.53l1-2.31a7.75,7.75,0,0,0,4.37,1.39c1.82,0,2.56-.61,2.56-1.42,0-2.49-7.71-.78-7.71-5.7,0-2.26,1.82-4.13,5.59-4.13a8.93,8.93,0,0,1,4.6,1.17l-.95,2.33a7.49,7.49,0,0,0-3.67-1c-1.82,0-2.52.68-2.52,1.51,0,2.45,7.71.76,7.71,5.63,0,2.22-1.84,4.11-5.62,4.11A9.42,9.42,0,0,1,256.43,316.53Z" transform="translate(-68.31 -61)"/><path class="cls-12" d="M94.3,240.15H79.2l-2.88,7H68.61L83.1,214.61h7.43l14.54,32.51H97.18Zm-2.37-5.71L86.77,222l-5.15,12.45Z" transform="translate(-68.31 -61)"/><path class="cls-12" d="M115.89,222.69h6.41v5.57h-6.23v18.86h-7.24V228.26H105v-5.57h3.86v-1.11c0-5.63,3.44-9.29,9.66-9.29a10.29,10.29,0,0,1,5.53,1.34l-1.91,5.25a5,5,0,0,0-2.92-.88c-2.14,0-3.3,1.16-3.3,3.62Z" transform="translate(-68.31 -61)"/><path class="cls-12" d="M145.15,221.76v6.69c-.61,0-1.07-.09-1.63-.09-4,0-6.64,2.18-6.64,7v11.8h-7.25v-25h6.92v3.3C138.32,223,141.29,221.76,145.15,221.76Z" transform="translate(-68.31 -61)"/><path class="cls-12" d="M148.58,214.61c0-2.28,1.81-4,4.51-4s4.5,1.67,4.5,3.9a4.17,4.17,0,0,1-4.5,4.18C150.39,218.65,148.58,216.88,148.58,214.61Zm.88,7.52h7.25v25h-7.25Z" transform="translate(-68.31 -61)"/><path class="cls-12" d="M161.58,234.63c0-7.53,5.81-12.87,13.94-12.87,5.25,0,9.38,2.28,11.19,6.36l-5.62,3a6.22,6.22,0,0,0-5.62-3.43c-3.67,0-6.55,2.55-6.55,6.92s2.88,6.92,6.55,6.92a6.14,6.14,0,0,0,5.62-3.44l5.62,3.07c-1.81,4-5.94,6.31-11.19,6.31C167.39,247.49,161.58,242.15,161.58,234.63Z" transform="translate(-68.31 -61)"/><path class="cls-12" d="M213,232.86v14.26h-6.79V244c-1.34,2.28-3.94,3.48-7.61,3.48-5.85,0-9.34-3.25-9.34-7.57s3.11-7.48,10.73-7.48h5.76c0-3.11-1.86-4.92-5.76-4.92a12,12,0,0,0-7.2,2.32l-2.6-5.06a19.22,19.22,0,0,1,10.78-3C208.58,221.76,213,225.29,213,232.86Zm-7.25,6.37v-2.56h-5c-3.39,0-4.46,1.26-4.46,2.93s1.53,3,4.09,3A5.34,5.34,0,0,0,205.75,239.23Z" transform="translate(-68.31 -61)"/><path class="cls-12" d="M98.13,280.48c0,5.62-4.46,8.87-13,8.87H68.31V256.84H84.19c8.13,0,12.31,3.39,12.31,8.45a7.8,7.8,0,0,1-4.32,7.15A8,8,0,0,1,98.13,280.48Zm-22.34-18v7.67h7.47c3.67,0,5.67-1.3,5.67-3.86s-2-3.81-5.67-3.81Zm14.77,17.19c0-2.74-2.09-4-6-4H75.79v8h8.78C88.47,283.68,90.56,282.48,90.56,279.69Z" transform="translate(-68.31 -61)"/><path class="cls-12" d="M128.5,264.36v25h-6.88v-3a10.1,10.1,0,0,1-7.75,3.34c-6.27,0-10.68-3.53-10.68-11.24V264.36h7.24v13.05c0,4.18,1.86,6,5.06,6,3.35,0,5.76-2.13,5.76-6.73V264.36Z" transform="translate(-68.31 -61)"/><path class="cls-12" d="M134.35,256.84c0-2.28,1.81-4,4.5-4s4.51,1.68,4.51,3.91a4.17,4.17,0,0,1-4.51,4.18C136.16,260.88,134.35,259.11,134.35,256.84Zm.88,7.52h7.24v25h-7.24Z" transform="translate(-68.31 -61)"/><path class="cls-12" d="M149.21,254.89h7.24v34.46h-7.24Z" transform="translate(-68.31 -61)"/><path class="cls-12" d="M188.64,254.89v34.46h-6.92v-2.88c-1.81,2.18-4.46,3.25-7.81,3.25-7.06,0-12.49-5-12.49-12.86S166.85,264,173.91,264a9.61,9.61,0,0,1,7.48,3V254.89Zm-7.11,22c0-4.32-2.78-6.93-6.36-6.93s-6.41,2.61-6.41,6.93,2.79,6.92,6.41,6.92S181.53,281.17,181.53,276.86Z" transform="translate(-68.31 -61)"/><path class="cls-12" d="M194.44,256.84c0-2.28,1.81-4,4.51-4s4.5,1.68,4.5,3.91a4.17,4.17,0,0,1-4.5,4.18C196.25,260.88,194.44,259.11,194.44,256.84Zm.88,7.52h7.25v25h-7.25Z" transform="translate(-68.31 -61)"/><path class="cls-12" d="M234.85,275v14.31H227.6V276.16c0-4-1.86-5.9-5.06-5.9-3.48,0-6,2.14-6,6.74v12.35H209.3v-25h6.92v2.93a10.93,10.93,0,0,1,8.27-3.3C230.39,264,234.85,267.43,234.85,275Z" transform="translate(-68.31 -61)"/><path class="cls-12" d="M267.45,264.36v20.81c0,9.29-5,13.56-14,13.56-4.74,0-9.33-1.16-12.26-3.43l2.88-5.21a14.93,14.93,0,0,0,8.82,2.84c5.11,0,7.34-2.33,7.34-6.83V285a10.27,10.27,0,0,1-7.89,3.11c-6.92,0-12.5-4.78-12.5-12.07S245.39,264,252.31,264c3.48,0,6.36,1.16,8.26,3.58v-3.21Zm-7.15,11.71c0-3.67-2.75-6.14-6.55-6.14s-6.6,2.47-6.6,6.14,2.79,6.13,6.6,6.13S260.3,279.74,260.3,276.07Z" transform="translate(-68.31 -61)"/></svg>