<?xml version="1.0" encoding="utf-8"?>
<!-- Generator: Adobe Illustrator 19.0.0, SVG Export Plug-In . SVG Version: 6.00 Build 0)  -->
<svg version="1.1" id="layer" xmlns="http://www.w3.org/2000/svg" xmlns:xlink="http://www.w3.org/1999/xlink" x="0px" y="0px"
	 viewBox="-153 -46 652 652" style="enable-background:new -153 -46 652 652;" xml:space="preserve">
<style type="text/css">
	.st0{fill:url(#SVGID_1_);}
	.st1{fill:none;}
	.st2{fill:#FFFFFF;}
</style>
<linearGradient id="SVGID_1_" gradientUnits="userSpaceOnUse" x1="-122.6629" y1="699.829" x2="-121.6279" y2="699.829" gradientTransform="matrix(585.3855 0 0 -585.3855 71678.8906 409950.625)">
	<stop  offset="0" style="stop-color:#009A7B"/>
	<stop  offset="0.4221" style="stop-color:#24A656"/>
	<stop  offset="0.7803" style="stop-color:#3CAD3E"/>
	<stop  offset="1" style="stop-color:#45B035"/>
</linearGradient>
<rect x="-126.2" y="202.3" class="st0" width="600" height="157.1"/>
<rect x="-126.2" y="202.3" class="st1" width="600" height="157.1"/>
<path class="st2" d="M111.2,281.7v-0.4c0-8.7-6.5-15.9-15.3-15.9c-8.8,0-15.2,7-15.2,15.8v0.1c0,8.7,6.5,15.9,15.3,15.9
	c8.8,0,15.2-7,15.2-15.7 M75.9,281.7v-0.4c0-10.6,8.2-19.9,19.9-19.9c11.7,0,19.6,9.2,19.6,19.8l0.1,0.1c0,10.6-8.2,19.9-19.9,19.9
	c-11.7,0-19.8-9.2-19.8-19.7 M121,262.2h3.6v34.1h21.9v3.7H121 M164.9,296.3c9.7,0,15.7-6.4,15.7-14.9v-0.1c0-8.5-6-15.4-15.7-15.4
	h-8.6v30.4H164.9z M151.4,262.2h13.5c12,0,20.6,8.2,20.6,19v0.1c0,10.8-8.5,18.7-20.6,18.7h-13.5 M190.3,262.2h9.2l10.1,16.2
	l10.1-16.2h9.5V300h-8.5v-24.5l-11.1,16h-0.2l-10.6-15.8V300h-8.5 M237.8,284.1v-21.9h8.5v21.6c0,6.3,2.7,9.5,7.9,9.5
	c5.2,0,7.9-3.1,7.9-9.2v-21.9h8.5v21.6c0,11.6-6.2,17.4-16.5,17.4C243.8,301.1,237.8,295.4,237.8,284.1 M287.7,269.5h-12.2v-7.3
	h31.6v7.3H295V300h-7.3 M312,284.1v-21.9h8.5v21.6c0,6.3,2.7,9.5,7.9,9.5c5.1,0,7.9-3.1,7.9-9.2v-21.9h8.5v21.6
	c0,11.6-6.2,17.4-16.5,17.4C318,301.1,312,295.4,312,284.1 M371.7,284.1l-5.1-12.5l-5.1,12.5H371.7z M362.8,262.2h7.8l16.5,37.7
	h-8.8l-3.5-8.5h-16.2L355,300h-8.6 M390.5,262.2h8.5v30.5h19.5v7.3h-28"/>
<path class="st2" d="M15.5,299.1c1.2-2.1,0.5-4.7-1.6-5.9c-2.1-1.2-4.7-0.5-5.9,1.6c-1.2,2.1-0.5,4.7,1.6,5.9l2.2,0.6
	C13.3,301.3,14.7,300.5,15.5,299.1 M0.6,286.3c1.8-3.3,8.9-2.2,6.6,2.5c2.8-1.6,6.3-1.7,9.2,0.1c4.5,2.6,6,8.3,3.4,12.8
	c-2.6,4.5-8.3,6-12.8,3.4c-3-1.7-4.6-4.8-4.7-8c-3,4.3-7.4-1.2-5.5-4.4c-1.8-1.4-5.4-3.6-8.7-5.6c-0.1-2.4-0.2-4.8-0.3-7.2
	C-8.1,282-2.2,285.1,0.6,286.3 M-46.1,300.7c2.1-1.2,2.8-3.8,1.6-5.9c-1.2-2.1-3.8-2.8-5.9-1.6c-2.1,1.2-2.8,3.8-1.6,5.9
	c0.8,1.4,2.3,2.2,3.7,2.2L-46.1,300.7z M-24.7,287c-3.3,2-6.8,4.3-8.7,5.6c2,3.2-2.5,8.8-5.5,4.4c0,3.2-1.7,6.3-4.7,8
	c-4.5,2.6-10.2,1-12.8-3.4c-2.6-4.5-1-10.2,3.4-12.8c3-1.7,6.5-1.6,9.3-0.1c-2.3-4.7,4.8-5.8,6.6-2.5c2.9-1.2,8.7-4.3,12.7-6.5
	C-24.4,282.2-24.5,284.6-24.7,287 M-13.9,244.9c0-2.4-1.9-4.3-4.3-4.3c-2.4,0-4.3,1.9-4.3,4.3c0,2.4,1.9,4.3,4.3,4.3
	C-15.8,249.3-13.9,247.3-13.9,244.9 M-8.9,244.9c0,3.4-1.8,6.4-4.6,8c5.2,0.4,2.7,7-1.1,7c-0.4,3.5-0.6,11.5-0.6,15.9
	c0,16.3,2.3,36.3,7.9,41.7c4,0.3,8.8-0.2,13.7-1.6c5.3-1.4,9.9-3.6,13.3-6.1c4.1,0.5,7.6,1.6,10.3,3.1c-6.1,5.3-13,10.3-20.5,14.6
	c-8.9,5.1-18.7,9.3-27.7,12.1c-8.9-2.8-18.8-7-27.7-12.1c-7.5-4.4-14.4-9.4-20.5-14.6c2.7-1.4,6.2-2.5,10.3-3.1
	c3.4,2.5,7.9,4.6,13.3,6.1c5,1.3,9.7,1.9,13.7,1.6c5.6-5.4,7.9-25.4,7.9-41.7c0-4.4-0.2-12.4-0.6-15.9c-3.8,0.1-6.4-6.6-1.1-7
	c-2.7-1.6-4.6-4.6-4.6-8c0-5.2,4.2-9.3,9.4-9.3C-13,235.6-8.9,239.8-8.9,244.9 M9.5,231.7c9.1,5.3,17.3,11.4,24.3,17.9
	c2.2,9.4,3.4,19.5,3.4,30c0,8.7-0.9,17.2-2.4,25.1c-2.6-1.6-5.3-4.1-7.8-7.4c0.5-4.2,0.1-9.2-1.4-14.5c-1.3-5-3.3-9.4-5.5-12.7
	c-6.2-1.8-19.7,3.3-32.1,9.7c0-1.3,0-2.6,0-4c0-1.1,0-2.4,0-3.8c10.5-7.1,19.8-15.2,21.2-20.8c-1.7-3.6-4.6-7.5-8.2-11.1
	c-3.9-3.9-8-6.8-11.9-8.5c-1.6-3.8-2.4-7.4-2.5-10.4C-5.8,223.9,2,227.3,9.5,231.7 M-25.5,231.6c-3.9,1.7-8,4.5-11.9,8.5
	c-3.6,3.6-6.5,7.5-8.2,11.1c1.4,5.6,10.7,13.7,21.2,20.8c0,1.4,0,2.7,0,3.8c0,1.3,0,2.6-0.1,4c-12.5-6.4-26-11.4-32.1-9.7
	c-2.3,3.3-4.2,7.7-5.5,12.7c-1.4,5.4-1.8,10.3-1.4,14.5c-2.5,3.2-5.2,5.8-7.8,7.4c-1.5-7.9-2.4-16.4-2.4-25.1
	c0-10.6,1.2-20.6,3.4-30c7-6.6,15.2-12.7,24.3-17.9c7.6-4.4,15.3-7.8,23-10.4C-23.1,224.3-23.9,227.9-25.5,231.6"/>
</svg>
